<?xml version="1.0" encoding="UTF-8" standalone="no"?>
<svg
   xmlns:dc="http://purl.org/dc/elements/1.1/"
   xmlns:cc="http://creativecommons.org/ns#"
   xmlns:rdf="http://www.w3.org/1999/02/22-rdf-syntax-ns#"
   xmlns:svg="http://www.w3.org/2000/svg"
   xmlns="http://www.w3.org/2000/svg"
   viewBox="0 0 427.18668 133.93333"
   height="133.93333"
   width="427.18668"
   xml:space="preserve"
   id="svg2"
   version="1.1"><metadata
     id="metadata8"><rdf:RDF><cc:Work
         rdf:about=""><dc:format>image/svg+xml</dc:format><dc:type
           rdf:resource="http://purl.org/dc/dcmitype/StillImage" /></cc:Work></rdf:RDF></metadata><defs
     id="defs6" /><g
     transform="matrix(1.3333333,0,0,-1.3333333,0,133.93333)"
     id="g10"><g
       transform="scale(0.1)"
       id="g12"><path
         id="path14"
         style="fill:#0e7967;fill-opacity:1;fill-rule:nonzero;stroke:none"
         d="M 358.852,196.867 C 203.512,211.934 82.0703,342.797 82.0703,502.09 c 0,154.078 113.6177,281.551 261.6287,303.375 -0.129,10.199 0.094,21.023 0.801,32.398 1.199,19.313 3.59,37.012 6.543,52.864 l -18.008,-39.231 c -24.387,-3.859 -47.922,-10.25 -70.387,-18.82 l -35.531,25.199 -65.422,-37.77 4.059,-43.371 C 146.887,761.402 129.633,744.18 114.273,725.332 L 70.9766,729.383 33.207,663.965 58.2695,628.625 C 49.6328,606.117 43.1992,582.523 39.3008,558.074 L 0,540.035 v -0.351 -75.188 -0.351 l 39.2305,-18.008 c 3.8633,-24.391 10.25,-47.926 18.8242,-70.387 l -25.2031,-35.531 37.7734,-65.422 43.367,4.058 c 15.332,-18.867 32.555,-36.125 51.403,-51.48 l -4.051,-43.301 65.422,-37.769 35.336,25.062 c 22.628,-8.679 46.347,-15.144 70.933,-19.035 l 18.008,-39.234 c 3.047,16.644 5.5,35 6.797,54.879 0.656,10.027 0.969,19.668 1.012,28.89" /><path
         id="path16"
         style="fill:#0e7967;fill-opacity:1;fill-rule:nonzero;stroke:none"
         d="m 426.586,113.098 18.004,39.234 c 24.625,3.898 48.375,10.375 71.027,19.074 l 34.895,-24.746 65.418,37.77 -3.996,42.711 c 19.058,15.496 36.464,32.933 51.937,52.011 l 42.781,-4.004 37.77,65.422 -24.887,35.086 c 8.594,22.489 14.996,46.059 18.86,70.481 l 39.234,18.008 v 0.351 75.188 0.351 l -39.301,18.039 c -3.902,24.485 -10.351,48.106 -19.008,70.645 l 24.746,34.89 -37.769,65.422 -42.711,-3.996 c -15.496,19.059 -32.934,36.465 -52.012,51.934 l 4.004,42.781 -65.422,37.77 -35.086,-24.883 c -22.488,8.593 -46.054,14.992 -70.48,18.859 l -18.004,39.231 c -2.176,-14.559 -4,-30.122 -5.273,-46.594 -0.993,-12.832 -1.563,-25.149 -1.809,-36.895 154.992,-15.402 276.055,-146.101 276.055,-305.148 0,-153.867 -113.313,-281.207 -261.032,-303.289 0.075,-12.02 -0.339,-25.039 -1.492,-38.91 -1.418,-17.063 -3.726,-32.723 -6.449,-46.793" /><path
         id="path18"
         style="fill:#0e7967;fill-opacity:1;fill-rule:nonzero;stroke:none"
         d="m 358.113,607.844 57.176,-56.453 c -1.398,40.382 -2.738,56.109 -3.875,95.015 h -55.262 c 0.61,-20.679 1.266,-17.383 1.961,-38.562" /><path
         id="path20"
         style="fill:#0e7967;fill-opacity:1;fill-rule:nonzero;stroke:none"
         d="m 368.055,502.168 -7.442,7.75 c 0.387,-11.238 0.774,-3.074 1.164,-14.332 l 6.278,6.582" /><path
         id="path22"
         style="fill:#0e7967;fill-opacity:1;fill-rule:nonzero;stroke:none"
         d="M 417.617,455.246 364.105,402.41 c 0.762,-23.094 1.481,-21.785 2.141,-44.48 h 55.313 c -1.164,39.968 -2.528,56.468 -3.942,97.316" /><path
         id="path24"
         style="fill:#0e7967;fill-opacity:1;fill-rule:nonzero;stroke:none"
         d="m 354.855,713.125 h 55.282 c -0.442,17.906 -0.832,25.859 -1.133,43.051 -1.609,92.57 2.898,136.058 19.976,163.594 9.352,17.593 21.504,25.429 35.551,25.671 7.016,0.125 16.711,-1.886 23.766,-3.941 l 8.668,57.082 c -8.836,3.118 -22.059,6.148 -34.344,5.938 -26.328,-0.46 -52.449,-12.899 -71.297,-39.375 -30,-41.918 -39.64,-93.403 -37.726,-203.395 0.328,-18.98 0.761,-28.777 1.257,-48.625" /><path
         id="path26"
         style="fill:#0e7967;fill-opacity:1;fill-rule:nonzero;stroke:none"
         d="m 422.844,291.055 h -55.313 c 0.5,-20.153 0.938,-30.332 1.278,-49.782 1.761,-101.289 -6.45,-133.945 -20.918,-160.3394 -8.512,-15.4063 -21.563,-22.1641 -33.848,-22.3789 -7.016,-0.1211 -16.711,1.8867 -23.766,3.9414 L 280.664,9.15625 c 7.992,-5.30469 22.113,-9.417969 37.91,-9.1367187 34.231,0.5898437 58.52,17.3593687 75.524,49.2460687 20.437,36.3008 31.894,84.0584 29.98,194.0544 -0.328,18.793 -0.75,28.289 -1.234,47.735" /><path
         id="path28"
         style="fill:#0e7967;fill-opacity:1;fill-rule:nonzero;stroke:none"
         d="M 450.398,501.992 294.492,348.051 h 151.055 c 7.723,0 28.558,1.59 34.969,4.172 6.808,2.746 11.863,6.101 17.261,11.519 5.817,5.828 10.594,11.426 13.989,19.145 3.464,7.875 9.035,21.972 9.308,30.832 L 551.102,413.48 538.516,300.582 H 226.699 v 47.469 L 377.758,501.992 226.523,655.934 v 47.308 h 311.993 l 12.586,-113.133 h -30.028 c -1.398,4.387 -8.367,30.356 -20.168,44.121 -11.801,13.77 -25.383,17.477 -35.14,19.52 -4.371,0.871 -10.055,1.453 -17.047,1.746 -6.992,0.289 -14.133,0.438 -21.418,0.438 H 294.492 L 450.398,501.992" /><path
         id="path30"
         style="fill:#0e7967;fill-opacity:1;fill-rule:nonzero;stroke:none"
         d="m 1267.47,658.676 v 109.019 c 0,4.301 0.24,9.871 0.45,13.832 -2.32,-3.679 -5.82,-9.011 -9.03,-12.941 l -49.81,-62.863 h -4.09 l -49.1,62.879 c -3.19,3.918 -6.78,9.246 -9.15,12.921 0.26,-3.976 0.58,-9.55 0.58,-13.828 V 658.676 h -19.3 v 167.637 h 4.25 l 75.24,-94.051 74.77,94.051 h 4.49 V 658.676 h -19.3" /><path
         id="path32"
         style="fill:#0e7967;fill-opacity:1;fill-rule:nonzero;stroke:none"
         d="m 1288.02,827.563 h -6.34 l -0.75,-0.946 -73.42,-92.355 -73.89,92.363 -0.75,0.938 h -1.2 -2.4 -2.5 v -2.5 -165.137 -2.5 h 2.5 16.8 2.5 v 2.5 107.769 c 0,2.825 -0.13,6.16 -0.3,9.239 2.06,-3.047 4.45,-6.422 6.66,-9.137 l 48.7,-62.363 0.75,-0.961 h 1.22 2.88 1.21 l 0.75,0.949 49.44,62.398 c 2.21,2.711 4.56,6.078 6.57,9.125 -0.13,-3.082 -0.23,-6.422 -0.23,-9.25 v -107.769 -2.5 h 2.5 16.8 2.5 v 2.5 165.137 2.5 z m -2.5,-2.5 V 659.926 h -16.8 v 107.769 c 0,7.442 0.73,18.723 0.73,18.723 0,0 -6.24,-10.563 -11.53,-17.043 l -49.44,-62.402 h -2.88 l -48.73,62.402 c -5.28,6.48 -11.76,17.043 -11.76,17.043 0,0 0.96,-11.281 0.96,-18.723 V 659.926 h -16.8 v 165.137 h 2.4 l 75.85,-94.809 75.37,94.809 h 2.63" /><path
         id="path34"
         style="fill:#0e7967;fill-opacity:1;fill-rule:nonzero;stroke:none"
         d="m 1328.64,658.676 v 165.715 h 101.87 v -17.864 h -82.09 v -74.066 h 73.2 v -17.617 h -73.2 v -38.305 h 85.44 v -17.863 h -105.22" /><path
         id="path36"
         style="fill:#0e7967;fill-opacity:1;fill-rule:nonzero;stroke:none"
         d="M 1431.76,825.641 H 1327.39 V 657.426 h 107.72 v 2.5 15.363 2.5 h -2.5 -82.94 v 35.805 h 70.7 2.5 v 2.5 15.117 2.5 h -2.5 -70.7 v 71.566 h 79.59 2.5 v 2.5 15.364 2.5 z m -2.5,-2.5 v -15.364 h -82.09 v -76.566 h 73.2 v -15.117 h -73.2 v -40.805 h 85.44 v -15.363 h -102.72 v 163.215 h 99.37" /><path
         id="path38"
         style="fill:#0e7967;fill-opacity:1;fill-rule:nonzero;stroke:none"
         d="m 1568.2,658.676 -41.89,65.867 c -1.61,2.633 -3.28,6.238 -4.38,8.758 -0.96,-2.531 -2.45,-6.117 -4.06,-8.746 l -41.66,-65.879 h -21.92 l 56.71,90.058 -47.83,75.657 h 22.63 l 32.78,-51.461 c 1.58,-2.59 3.13,-6.02 4.16,-8.465 0.97,2.504 2.46,6 4.05,8.469 l 32.53,51.457 h 21.91 l -47.58,-75.653 57.2,-90.062 h -22.65" /><path
         id="path40"
         style="fill:#0e7967;fill-opacity:1;fill-rule:nonzero;stroke:none"
         d="m 1583.49,825.641 h -24.86 l -0.74,-1.164 -32.16,-50.887 c -1.11,-1.707 -2.16,-3.895 -3.03,-5.918 -0.9,1.973 -1.97,4.121 -3.04,5.887 l -32.43,50.921 -0.74,1.161 h -1.37 -19.68 -4.54 l 2.42,-3.836 46.21,-73.075 -55.09,-87.472 -2.41,-3.832 h 4.53 18.96 1.38 l 0.73,1.164 41.29,65.285 c 1.13,1.848 2.2,4.141 3.08,6.23 0.97,-2.078 2.11,-4.367 3.23,-6.199 l 41.55,-65.32 0.74,-1.16 h 1.37 19.68 4.55 l -2.44,3.84 -55.56,87.476 45.96,73.067 2.41,3.832 z m -4.52,-2.5 -46.8,-74.407 56.4,-88.808 h -19.68 l -41.52,65.285 c -2.65,4.32 -5.53,11.523 -5.53,11.523 0,0 -2.39,-7.203 -5.04,-11.523 l -41.28,-65.285 h -18.96 l 55.92,88.808 -47.04,74.407 h 19.68 l 32.4,-50.883 c 2.64,-4.324 5.29,-11.281 5.29,-11.281 0,0 2.39,7.195 5.03,11.281 l 32.17,50.883 h 18.96" /><path
         id="path42"
         style="fill:#0e7967;fill-opacity:1;fill-rule:nonzero;stroke:none"
         d="m 1712.24,703.422 -28.12,70.773 c -1.95,4.805 -3.92,11.239 -5.12,15.395 -1.27,-4.156 -3.33,-10.598 -5.28,-15.402 l -28.12,-70.766 z m 18.28,-44.746 -11.04,27.363 h -80.87 l -10.8,-27.363 h -19.76 l 68.71,167.394 h 4.55 l 70.18,-167.394 h -20.97" /><path
         id="path44"
         style="fill:#0e7967;fill-opacity:1;fill-rule:nonzero;stroke:none"
         d="m 1647.44,704.672 27.44,69.062 c 1.44,3.532 2.91,7.86 4.09,11.559 1.13,-3.703 2.56,-8.035 3.99,-11.574 l 27.44,-69.047 h -62.96 z m 34.7,122.648 h -6.22 l -0.63,-1.55 -67.69,-164.895 -1.41,-3.449 h 3.72 17.05 1.7 l 0.62,1.582 10.18,25.781 h 79.18 l 10.41,-25.797 0.63,-1.566 h 1.68 18.25 3.76 l -1.46,3.469 -69.12,164.89 -0.65,1.535 z m -38.38,-125.148 h 70.32 l -28.8,72.484 c -3.12,7.684 -6.24,19.442 -6.24,19.442 0,0 -3.36,-11.758 -6.48,-19.442 l -28.8,-72.484 m 36.72,122.648 69.13,-164.894 h -18.25 l -11.04,27.363 h -82.56 l -10.8,-27.363 h -17.05 l 67.69,164.894 h 2.88" /><path
         id="path46"
         style="fill:#0e7967;fill-opacity:1;fill-rule:nonzero;stroke:none"
         d="m 1880.35,658.676 v 55.445 h -84.86 v -55.445 h -19.78 v 165.715 h 19.78 v -91.93 h 84.86 v 91.93 h 19.78 V 658.676 h -19.78" /><path
         id="path48"
         style="fill:#0e7967;fill-opacity:1;fill-rule:nonzero;stroke:none"
         d="m 1901.38,825.641 h -22.28 v -91.93 h -82.36 v 89.43 2.5 h -2.5 -17.28 -2.5 v -2.5 -163.215 -2.5 h 2.5 17.28 2.5 v 2.5 52.945 h 82.36 v -52.945 -2.5 h 2.5 17.28 2.5 v 2.5 163.215 2.5 z m -2.5,-2.5 V 659.926 h -17.28 v 55.445 h -87.36 v -55.445 h -17.28 v 163.215 h 17.28 v -91.93 h 87.36 v 91.93 h 17.28" /><path
         id="path50"
         style="fill:#0e7967;fill-opacity:1;fill-rule:nonzero;stroke:none"
         d="m 1941.88,656.996 v 167.395 h 18.58 V 712.973 c 0,-4.207 -0.42,-9.973 -0.77,-13.969 2.39,3.316 5.91,8.101 8.64,11.402 l 97.83,115.664 h 4.71 V 658.676 h -18.82 v 111.422 c 0,4.16 0.5,9.832 0.91,13.828 -2.39,-3.305 -5.85,-8.008 -8.54,-11.266 l -97.83,-115.664 h -4.71" /><path
         id="path52"
         style="fill:#0e7967;fill-opacity:1;fill-rule:nonzero;stroke:none"
         d="m 2072.12,827.32 h -6.54 l -0.75,-0.886 -97.45,-115.211 c -1.89,-2.285 -4.11,-5.219 -6.09,-7.903 0.23,3.246 0.42,6.801 0.42,9.653 v 110.168 2.5 h -2.5 -16.08 -2.5 v -2.5 -164.895 -2.5 h 2.5 2.88 1.16 l 0.75,0.887 97.44,115.211 c 1.84,2.222 3.99,5.051 5.93,7.672 -0.27,-3.184 -0.49,-6.633 -0.49,-9.418 v -110.172 -2.5 h 2.5 16.32 2.5 v 2.5 164.894 2.5 z m -2.5,-2.5 V 659.926 h -16.32 v 110.172 c 0,6.957 1.44,18.48 1.44,18.48 0,0 -6.72,-9.598 -11.29,-15.121 l -97.44,-115.211 h -2.88 v 164.895 h 16.08 V 712.973 c 0,-6.961 -1.2,-18.485 -1.2,-18.485 0,0 6.72,9.602 11.28,15.121 l 97.45,115.211 h 2.88" /><path
         id="path54"
         style="fill:#0e7967;fill-opacity:1;fill-rule:nonzero;stroke:none"
         d="m 2207.11,658.676 -56.3,71.031 -18.7,-22.574 0.29,-48.457 h -19.79 v 165.715 h 19.79 v -78.536 c 0,-5.242 -0.45,-11.261 -0.88,-16.226 2.66,4.922 6.32,11.394 8.95,14.824 l 62.07,79.938 h 22.59 l -61.44,-79.969 67.97,-85.746 h -24.55" /><path
         id="path56"
         style="fill:#0e7967;fill-opacity:1;fill-rule:nonzero;stroke:none"
         d="m 2227.66,825.641 h -25.73 l -0.75,-0.969 -61.69,-79.442 c -1.83,-2.39 -4.14,-6.199 -6.27,-9.953 0.24,3.524 0.43,7.203 0.43,10.578 v 77.286 2.5 h -2.5 -17.29 -2.5 v -2.5 -163.215 -2.5 h 2.5 17.29 2.5 v 2.5 47.101 l 17.13,20.696 54.97,-69.348 0.75,-0.949 h 1.21 21.36 5.18 l -3.22,4.054 -65.75,82.958 59.29,77.179 3.09,4.024 z m -5.07,-2.5 -60.48,-78.727 66.96,-84.488 h -21.36 l -56.88,71.769 -19.68,-23.765 v -48.004 h -17.29 v 163.215 h 17.29 v -77.286 c 0,-7.683 -0.97,-17.042 -1.45,-22.324 3.6,6.961 8.64,16.082 11.76,20.164 l 61.69,79.446 h 19.44" /><path
         id="path58"
         style="fill:#0e7967;fill-opacity:1;fill-rule:nonzero;stroke:none"
         d="m 2321.82,808.207 c -37.38,0 -64.51,-28.039 -64.51,-66.676 0,-38.633 27.13,-66.672 64.51,-66.672 37.53,0 64.76,28.039 64.76,66.672 0,38.637 -27.23,66.676 -64.76,66.676 z m 0,-151.449 c -48.46,0 -85.02,36.445 -85.02,84.773 0,48.336 36.56,84.782 85.02,84.782 48.61,0 85.26,-36.446 85.26,-84.782 0,-48.328 -36.65,-84.773 -85.26,-84.773" /><path
         id="path60"
         style="fill:#0e7967;fill-opacity:1;fill-rule:nonzero;stroke:none"
         d="m 2321.82,676.109 c -36.66,0 -63.26,27.516 -63.26,65.422 0,37.91 26.6,65.426 63.26,65.426 36.8,0 63.51,-27.516 63.51,-65.426 0,-37.906 -26.71,-65.422 -63.51,-65.422 z m 0,151.454 c -49.18,0 -86.27,-36.985 -86.27,-86.032 0,-49.043 37.09,-86.023 86.27,-86.023 49.32,0 86.51,36.98 86.51,86.023 0,49.047 -37.19,86.032 -86.51,86.032 z m 0,-153.954 c 38.17,0 66.01,29.043 66.01,67.922 0,38.883 -27.84,67.926 -66.01,67.926 -37.92,0 -65.76,-29.043 -65.76,-67.926 0,-38.879 27.84,-67.922 65.76,-67.922 m 0,151.454 c 46.57,0 84.01,-34.325 84.01,-83.532 0,-49.203 -37.44,-83.523 -84.01,-83.523 -46.32,0 -83.77,34.32 -83.77,83.523 0,49.207 37.45,83.532 83.77,83.532" /><path
         id="path62"
         style="fill:#0e7967;fill-opacity:1;fill-rule:nonzero;stroke:none"
         d="m 2435.16,706.68 v 17.621 h 75.69 V 706.68 h -75.69" /><path
         id="path64"
         style="fill:#0e7967;fill-opacity:1;fill-rule:nonzero;stroke:none"
         d="m 2512.1,725.551 h -78.19 V 705.43 h 78.19 v 2.5 15.121 2.5 z m -2.5,-2.5 V 707.93 h -73.19 v 15.121 h 73.19" /><path
         id="path66"
         style="fill:#0e7967;fill-opacity:1;fill-rule:nonzero;stroke:none"
         d="m 1267.47,418.676 v 109.019 c 0,4.301 0.24,9.871 0.45,13.832 -2.32,-3.679 -5.82,-9.011 -9.03,-12.941 l -49.81,-62.863 h -4.09 l -49.1,62.879 c -3.19,3.918 -6.78,9.246 -9.15,12.921 0.26,-3.976 0.58,-9.55 0.58,-13.828 V 418.676 h -19.3 v 167.637 h 4.25 l 75.24,-94.051 74.77,94.051 h 4.49 V 418.676 h -19.3" /><path
         id="path68"
         style="fill:#0e7967;fill-opacity:1;fill-rule:nonzero;stroke:none"
         d="m 1288.02,587.563 h -6.34 l -0.75,-0.946 -73.42,-92.355 -73.89,92.363 -0.75,0.938 h -1.2 -2.4 -2.5 v -2.5 -165.137 -2.5 h 2.5 16.8 2.5 v 2.5 107.769 c 0,2.825 -0.13,6.16 -0.3,9.239 2.06,-3.047 4.45,-6.422 6.66,-9.137 l 48.7,-62.363 0.75,-0.961 h 1.22 2.88 1.21 l 0.75,0.949 49.44,62.398 c 2.21,2.711 4.56,6.078 6.57,9.125 -0.13,-3.082 -0.23,-6.422 -0.23,-9.25 v -107.769 -2.5 h 2.5 16.8 2.5 v 2.5 165.137 2.5 z m -2.5,-2.5 V 419.926 h -16.8 v 107.769 c 0,7.442 0.73,18.723 0.73,18.723 0,0 -6.24,-10.563 -11.53,-17.043 l -49.44,-62.402 h -2.88 l -48.73,62.402 c -5.28,6.48 -11.76,17.043 -11.76,17.043 0,0 0.96,-11.281 0.96,-18.723 V 419.926 h -16.8 v 165.137 h 2.4 l 75.85,-94.809 75.37,94.809 h 2.63" /><path
         id="path70"
         style="fill:#0e7967;fill-opacity:1;fill-rule:nonzero;stroke:none"
         d="m 1415.32,463.422 -28.13,70.773 c -1.94,4.805 -3.91,11.239 -5.11,15.395 -1.27,-4.156 -3.33,-10.598 -5.29,-15.402 l -28.12,-70.766 z m 18.28,-44.746 -11.04,27.363 h -80.88 l -10.8,-27.363 h -19.75 l 68.71,167.394 h 4.55 l 70.17,-167.394 h -20.96" /><path
         id="path72"
         style="fill:#0e7967;fill-opacity:1;fill-rule:nonzero;stroke:none"
         d="m 1350.52,464.672 27.44,69.062 c 1.43,3.532 2.9,7.86 4.09,11.559 1.13,-3.703 2.55,-8.035 3.99,-11.574 l 27.44,-69.047 h -62.96 z m 34.7,122.648 H 1379 l -0.64,-1.55 -67.68,-164.895 -1.42,-3.449 h 3.73 17.04 1.7 l 0.63,1.582 10.17,25.781 h 79.18 l 10.41,-25.797 0.63,-1.566 h 1.69 18.24 3.76 l -1.45,3.469 -69.13,164.89 -0.64,1.535 z m -38.39,-125.148 h 70.33 l -28.8,72.484 c -3.12,7.684 -6.24,19.442 -6.24,19.442 0,0 -3.36,-11.758 -6.48,-19.442 l -28.81,-72.484 m 36.73,122.648 69.12,-164.894 h -18.24 l -11.04,27.363 h -82.57 l -10.8,-27.363 h -17.04 l 67.69,164.894 h 2.88" /><path
         id="path74"
         style="fill:#0e7967;fill-opacity:1;fill-rule:nonzero;stroke:none"
         d="m 1496.18,418.676 v 147.851 h -50.16 v 17.864 h 120.11 v -17.864 h -50.17 V 418.676 h -19.78" /><path
         id="path76"
         style="fill:#0e7967;fill-opacity:1;fill-rule:nonzero;stroke:none"
         d="m 1567.38,585.641 h -122.61 v -20.364 h 50.16 v -145.351 -2.5 h 2.5 17.28 2.5 v 2.5 145.351 h 47.67 2.5 v 2.5 15.364 2.5 z m -2.5,-2.5 v -15.364 h -50.17 V 419.926 h -17.28 v 147.851 h -50.16 v 15.364 h 117.61" /><path
         id="path78"
         style="fill:#0e7967;fill-opacity:1;fill-rule:nonzero;stroke:none"
         d="m 1590.38,418.676 v 165.715 h 101.87 v -17.864 h -82.09 v -74.066 h 73.21 v -17.617 h -73.21 v -38.305 h 85.45 v -17.863 h -105.23" /><path
         id="path80"
         style="fill:#0e7967;fill-opacity:1;fill-rule:nonzero;stroke:none"
         d="M 1693.5,585.641 H 1589.13 V 417.426 h 107.73 v 2.5 15.363 2.5 h -2.5 -82.95 v 35.805 h 70.71 2.5 v 2.5 15.117 2.5 h -2.5 -70.71 v 71.566 h 79.59 2.5 v 2.5 15.364 2.5 z m -2.5,-2.5 v -15.364 h -82.09 v -76.566 h 73.21 v -15.117 h -73.21 v -40.805 h 85.45 V 419.926 H 1591.63 V 583.141 H 1691" /><path
         id="path82"
         style="fill:#0e7967;fill-opacity:1;fill-rule:nonzero;stroke:none"
         d="m 1862.38,418.676 v 109.019 c 0,4.301 0.24,9.871 0.44,13.832 -2.31,-3.679 -5.82,-9.011 -9.02,-12.941 l -49.81,-62.863 h -4.09 l -49.1,62.879 c -3.2,3.918 -6.77,9.246 -9.16,12.921 0.27,-3.968 0.59,-9.55 0.59,-13.828 V 418.676 h -19.3 v 167.637 h 4.25 l 75.24,-94.051 74.77,94.051 h 4.49 V 418.676 h -19.3" /><path
         id="path84"
         style="fill:#0e7967;fill-opacity:1;fill-rule:nonzero;stroke:none"
         d="m 1882.93,587.563 h -6.34 l -0.75,-0.946 -73.42,-92.355 -73.89,92.363 -0.75,0.938 h -1.2 -2.4 -2.5 v -2.5 -165.137 -2.5 h 2.5 16.8 2.5 v 2.5 107.769 c 0,2.825 -0.13,6.16 -0.3,9.239 2.06,-3.047 4.45,-6.422 6.67,-9.137 l 48.68,-62.363 0.76,-0.961 h 1.22 2.88 1.21 l 0.75,0.949 49.44,62.398 c 2.21,2.711 4.56,6.078 6.57,9.125 -0.13,-3.082 -0.23,-6.422 -0.23,-9.25 v -107.769 -2.5 h 2.5 16.8 2.5 v 2.5 165.137 2.5 z m -2.5,-2.5 V 419.926 h -16.8 v 107.769 c 0,7.442 0.72,18.723 0.72,18.723 0,0 -6.24,-10.563 -11.52,-17.043 l -49.44,-62.402 h -2.88 l -48.73,62.402 c -5.28,6.48 -11.76,17.043 -11.76,17.043 0,0 0.96,-11.281 0.96,-18.723 V 419.926 h -16.8 v 165.137 h 2.4 l 75.84,-94.809 75.38,94.809 h 2.63" /><path
         id="path86"
         style="fill:#0e7967;fill-opacity:1;fill-rule:nonzero;stroke:none"
         d="m 2010.23,463.422 -28.12,70.773 c -1.95,4.805 -3.92,11.239 -5.12,15.395 -1.27,-4.156 -3.33,-10.598 -5.28,-15.402 l -28.12,-70.766 z m 18.28,-44.746 -11.04,27.363 h -80.88 l -10.8,-27.363 h -19.75 l 68.71,167.394 h 4.55 l 70.18,-167.394 h -20.97" /><path
         id="path88"
         style="fill:#0e7967;fill-opacity:1;fill-rule:nonzero;stroke:none"
         d="m 1945.43,464.672 27.44,69.062 c 1.44,3.532 2.91,7.86 4.09,11.559 1.13,-3.703 2.55,-8.035 3.99,-11.574 l 27.44,-69.047 h -62.96 z m 34.7,122.648 h -6.22 l -0.63,-1.55 -67.69,-164.895 -1.42,-3.449 h 3.73 17.04 1.7 l 0.63,1.582 10.18,25.781 h 79.18 l 10.4,-25.797 0.64,-1.566 h 1.68 18.25 3.75 l -1.45,3.469 -69.13,164.89 -0.64,1.535 z m -38.38,-125.148 h 70.32 l -28.8,72.484 c -3.12,7.684 -6.24,19.442 -6.24,19.442 0,0 -3.36,-11.758 -6.48,-19.442 l -28.8,-72.484 m 36.72,122.648 69.13,-164.894 h -18.25 l -11.04,27.363 h -82.57 l -10.8,-27.363 h -17.04 l 67.69,164.894 h 2.88" /><path
         id="path90"
         style="fill:#0e7967;fill-opacity:1;fill-rule:nonzero;stroke:none"
         d="m 2091.09,418.676 v 147.851 h -50.16 v 17.864 h 120.11 v -17.864 h -50.17 V 418.676 h -19.78" /><path
         id="path92"
         style="fill:#0e7967;fill-opacity:1;fill-rule:nonzero;stroke:none"
         d="m 2162.29,585.641 h -122.61 v -20.364 h 50.16 v -145.351 -2.5 h 2.5 17.28 2.5 v 2.5 145.351 h 47.67 2.5 v 2.5 15.364 2.5 z m -2.5,-2.5 v -15.364 h -50.17 V 419.926 h -17.28 v 147.851 h -50.16 v 15.364 h 117.61" /><path
         id="path94"
         style="fill:#0e7967;fill-opacity:1;fill-rule:nonzero;stroke:none"
         d="m 2185.29,416.996 v 167.395 h 18.58 V 472.973 c 0,-4.207 -0.42,-9.973 -0.77,-13.969 2.39,3.316 5.91,8.101 8.64,11.402 l 97.83,115.664 h 4.71 V 418.676 h -18.82 v 111.422 c 0,4.16 0.5,9.832 0.91,13.828 -2.39,-3.305 -5.85,-8.008 -8.54,-11.266 L 2190,416.996 h -4.71" /><path
         id="path96"
         style="fill:#0e7967;fill-opacity:1;fill-rule:nonzero;stroke:none"
         d="m 2315.53,587.32 h -6.54 l -0.74,-0.886 -97.46,-115.211 c -1.89,-2.285 -4.11,-5.219 -6.09,-7.903 0.23,3.246 0.42,6.801 0.42,9.653 v 110.168 2.5 h -2.5 -16.08 -2.5 v -2.5 -164.895 -2.5 h 2.5 2.88 1.16 l 0.75,0.887 97.45,115.211 c 1.83,2.222 3.98,5.051 5.92,7.672 -0.27,-3.184 -0.49,-6.633 -0.49,-9.418 v -110.172 -2.5 h 2.5 16.32 2.5 v 2.5 164.894 2.5 z m -2.5,-2.5 V 419.926 h -16.32 v 110.172 c 0,6.957 1.44,18.48 1.44,18.48 0,0 -6.72,-9.598 -11.28,-15.121 l -97.45,-115.211 h -2.88 v 164.895 h 16.08 V 472.973 c 0,-6.961 -1.2,-18.485 -1.2,-18.485 0,0 6.72,9.602 11.28,15.121 l 97.45,115.211 h 2.88" /><path
         id="path98"
         style="fill:#0e7967;fill-opacity:1;fill-rule:nonzero;stroke:none"
         d="m 2431.08,418.676 v 40.566 h -18.44 c -42.71,0 -68.87,23.219 -69.97,62.11 -0.34,11.906 -0.01,61.3 0,61.796 l 0.01,1.243 h 18.54 l -0.42,-61.696 c 1.04,-29.109 20.29,-45.836 52.81,-45.836 h 17.47 v 107.532 h 19.78 V 418.676 h -19.78" /><path
         id="path100"
         style="fill:#0e7967;fill-opacity:1;fill-rule:nonzero;stroke:none"
         d="m 2452.11,585.641 h -22.28 V 478.113 h -16.22 c -32.22,0 -50.53,15.867 -51.56,44.684 l 0.41,60.328 0.02,2.516 h -2.52 -16.04 -2.49 l -0.01,-2.481 c -0.01,-0.5 -0.34,-49.918 0,-61.844 1.13,-39.648 27.75,-63.32 71.22,-63.32 h 17.19 v -38.066 -2.5 h 2.5 17.28 2.5 v 2.5 163.211 2.5 z m -2.5,-2.5 V 419.93 h -17.28 v 40.566 h -19.69 c -44.64,0 -67.71,25.324 -68.72,60.891 -0.35,12.019 0,61.754 0,61.754 h 16.04 l -0.41,-60.434 c 0.96,-26.855 17.33,-47.094 54.06,-47.094 h 18.72 v 107.528 h 17.28" /><path
         id="path102"
         style="fill:#0e7967;fill-opacity:1;fill-rule:nonzero;stroke:none"
         d="m 2478.06,418.676 v 165.715 h 101.87 v -17.864 h -82.09 v -74.066 h 73.21 v -17.617 h -73.21 v -38.305 h 85.45 v -17.863 h -105.23" /><path
         id="path104"
         style="fill:#0e7967;fill-opacity:1;fill-rule:nonzero;stroke:none"
         d="M 2581.18,585.641 H 2476.81 V 417.426 h 107.73 v 2.5 15.363 2.5 h -2.5 -82.95 v 35.805 h 70.71 2.5 v 2.5 15.117 2.5 h -2.5 -70.71 v 71.566 h 79.59 2.5 v 2.5 15.364 2.5 z m -2.5,-2.5 v -15.364 h -82.09 v -76.566 h 73.21 v -15.117 h -73.21 v -40.805 h 85.45 v -15.363 h -102.73 v 163.215 h 99.37" /><path
         id="path106"
         style="fill:#0e7967;fill-opacity:1;fill-rule:nonzero;stroke:none"
         d="m 2684.69,416.762 c -48.47,0 -85.02,36.445 -85.02,84.769 0,48.336 36.55,84.782 85.02,84.782 29.01,0 51.78,-11.145 65.84,-32.243 l 0.67,-1 -15.23,-11.062 -0.72,1.074 c -10.97,16.199 -28.92,25.125 -50.56,25.125 -37.39,0 -64.52,-28.039 -64.52,-66.676 0,-38.633 27.13,-66.672 64.52,-66.672 22.39,0 40.62,9.278 52.73,26.821 l 0.71,1.035 15.49,-10.785 -0.69,-1.024 c -15.02,-22.015 -39.26,-34.144 -68.24,-34.144" /><path
         id="path108"
         style="fill:#0e7967;fill-opacity:1;fill-rule:nonzero;stroke:none"
         d="m 2684.69,587.563 c -49.19,0 -86.27,-36.985 -86.27,-86.032 0,-49.043 37.08,-86.023 86.27,-86.023 29.41,0 54.01,12.32 69.27,34.695 l 1.39,2.047 -2.03,1.414 -13.45,9.359 -2.06,1.434 -1.42,-2.066 c -11.87,-17.196 -29.74,-26.282 -51.7,-26.282 -36.66,0 -63.27,27.516 -63.27,65.422 0,37.91 26.61,65.426 63.27,65.426 21.21,0 38.8,-8.73 49.53,-24.578 l 1.45,-2.145 2.09,1.524 13.2,9.597 1.94,1.415 -1.33,1.996 c -14.3,21.457 -37.43,32.797 -66.88,32.797 z m 0,-2.5 c 28.79,0 50.88,-10.805 64.8,-31.684 l -13.2,-9.602 c -10.56,15.602 -28.08,25.68 -51.6,25.68 -38.17,0 -65.77,-29.043 -65.77,-67.926 0,-38.879 27.6,-67.922 65.77,-67.922 23.75,0 42,10.321 53.75,27.364 l 13.45,-9.364 c -14.4,-21.121 -37.92,-33.601 -67.2,-33.601 -46.33,0 -83.77,34.32 -83.77,83.523 0,49.207 37.44,83.532 83.77,83.532" /><path
         id="path110"
         style="fill:#0e7967;fill-opacity:1;fill-rule:nonzero;stroke:none"
         d="m 2875.22,418.676 -56.3,71.031 -18.7,-22.574 0.29,-48.457 h -19.78 v 165.715 h 19.78 v -78.536 c 0,-5.246 -0.44,-11.265 -0.88,-16.238 2.66,4.93 6.34,11.414 8.95,14.836 l 62.07,79.938 h 22.6 l -61.45,-79.969 67.97,-85.746 h -24.55" /><path
         id="path112"
         style="fill:#0e7967;fill-opacity:1;fill-rule:nonzero;stroke:none"
         d="m 2895.78,585.641 h -25.74 l -0.75,-0.969 -61.69,-79.442 c -1.82,-2.386 -4.13,-6.203 -6.27,-9.968 0.24,3.527 0.43,7.215 0.43,10.593 v 77.286 2.5 h -2.5 -17.28 -2.5 v -2.5 -163.215 -2.5 h 2.5 17.28 2.5 v 2.5 47.101 l 17.14,20.696 54.97,-69.348 0.75,-0.949 h 1.21 21.36 5.17 l -3.22,4.054 -65.75,82.958 59.3,77.179 3.09,4.024 z m -5.07,-2.5 -60.49,-78.727 66.97,-84.488 h -21.36 l -56.89,71.769 -19.68,-23.765 v -48.004 h -17.28 v 163.215 h 17.28 v -77.286 c 0,-7.683 -0.96,-17.042 -1.44,-22.324 3.6,6.961 8.64,16.082 11.76,20.164 l 61.69,79.446 h 19.44" /><path
         id="path114"
         style="fill:#0e7967;fill-opacity:1;fill-rule:nonzero;stroke:none"
         d="m 2912.93,416.996 v 167.395 h 18.57 V 472.973 c 0,-4.207 -0.43,-9.981 -0.77,-13.973 2.39,3.313 5.92,8.105 8.64,11.406 l 97.83,115.664 h 4.71 V 418.676 h -18.82 v 111.422 c 0,4.16 0.5,9.832 0.91,13.832 -2.39,-3.309 -5.85,-8.012 -8.53,-11.27 l -97.85,-115.664 h -4.69" /><path
         id="path116"
         style="fill:#0e7967;fill-opacity:1;fill-rule:nonzero;stroke:none"
         d="m 3043.16,587.32 h -6.54 l -0.75,-0.886 -97.44,-115.211 c -1.89,-2.289 -4.12,-5.223 -6.1,-7.914 0.23,3.25 0.42,6.808 0.42,9.664 v 110.168 2.5 h -2.5 -16.07 -2.5 v -2.5 -164.895 -2.5 h 2.5 2.87 1.16 l 0.75,0.887 97.45,115.211 c 1.83,2.222 3.98,5.051 5.92,7.672 -0.27,-3.184 -0.49,-6.633 -0.49,-9.418 v -110.172 -2.5 h 2.5 16.32 2.5 v 2.5 164.894 2.5 z m -2.5,-2.5 V 419.926 h -16.32 v 110.172 c 0,6.957 1.44,18.48 1.44,18.48 0,0 -6.72,-9.598 -11.28,-15.121 l -97.45,-115.211 h -2.87 v 164.895 h 16.07 V 472.973 c 0,-6.961 -1.2,-18.485 -1.2,-18.485 0,0 6.73,9.602 11.29,15.121 l 97.44,115.211 h 2.88" /><path
         id="path118"
         style="fill:#0e7967;fill-opacity:1;fill-rule:nonzero;stroke:none"
         d="m 3073.67,416.996 v 167.395 h 18.57 V 472.973 c 0,-4.207 -0.43,-9.981 -0.77,-13.973 2.39,3.313 5.92,8.105 8.64,11.406 l 97.84,115.664 h 4.7 V 418.676 h -18.81 v 111.422 c 0,4.16 0.49,9.832 0.9,13.832 -2.39,-3.309 -5.85,-8.012 -8.53,-11.27 l -97.84,-115.664 h -4.7" /><path
         id="path120"
         style="fill:#0e7967;fill-opacity:1;fill-rule:nonzero;stroke:none"
         d="m 3203.9,587.32 h -6.54 l -0.75,-0.886 -97.44,-115.211 c -1.89,-2.289 -4.12,-5.223 -6.1,-7.914 0.23,3.25 0.42,6.808 0.42,9.664 v 110.168 2.5 h -2.5 -16.07 -2.5 v -2.5 -164.895 -2.5 h 2.5 2.87 1.16 l 0.75,0.887 97.45,115.211 c 1.84,2.222 3.99,5.051 5.92,7.672 -0.27,-3.184 -0.48,-6.633 -0.48,-9.418 v -110.172 -2.5 h 2.5 16.31 2.5 v 2.5 164.894 2.5 z m -2.5,-2.5 V 419.926 h -16.31 v 110.172 c 0,6.957 1.43,18.48 1.43,18.48 0,0 -6.72,-9.598 -11.28,-15.121 l -97.45,-115.211 h -2.87 v 164.895 h 16.07 V 472.973 c 0,-6.961 -1.2,-18.485 -1.2,-18.485 0,0 6.73,9.602 11.29,15.121 l 97.44,115.211 h 2.88" /><path
         id="path122"
         style="fill:#0e7967;fill-opacity:1;fill-rule:evenodd;stroke:none"
         d="m 3138.51,567.605 c -9.29,0 -17.66,5.528 -22.36,14.793 l -0.93,1.817 h 45.72 l -0.73,-1.731 c -3.82,-9.179 -12.14,-14.879 -21.7,-14.879" /><path
         id="path124"
         style="fill:#0e7967;fill-opacity:1;fill-rule:nonzero;stroke:none"
         d="m 3162.81,585.465 h -49.62 l 1.85,-3.633 c 4.92,-9.691 13.7,-15.473 23.48,-15.473 10.07,0 18.83,5.993 22.85,15.645 l 1.44,3.461 z m -3.75,-2.5 c -3.81,-9.16 -12.06,-14.106 -20.54,-14.106 -8.08,0 -16.37,4.489 -21.26,14.106 h 41.8" /><path
         id="path126"
         style="fill:#0e7967;fill-opacity:1;fill-rule:nonzero;stroke:none"
         d="m 1197.65,326.527 c -32.61,0 -49.15,-15.086 -49.15,-44.832 0,-29.746 16.54,-44.836 49.15,-44.836 h 17.47 v 89.668 z m 54.73,-89.668 c 32.61,0 49.15,15.09 49.15,44.836 0,29.746 -16.54,44.832 -49.15,44.832 h -17.48 v -89.668 z m -37.26,-58.183 v 40.566 h -18.43 c -43.01,0 -68.69,23.352 -68.69,62.453 0,39.258 25.68,62.696 68.69,62.696 h 56.65 c 43.01,0 68.69,-23.438 68.69,-62.696 0,-39.101 -25.68,-62.453 -68.69,-62.453 h -18.44 v -40.566 h -19.78" /><path
         id="path128"
         style="fill:#0e7967;fill-opacity:1;fill-rule:nonzero;stroke:none"
         d="m 1197.65,238.109 c -31.78,0 -47.9,14.664 -47.9,43.586 0,28.918 16.12,43.582 47.9,43.582 h 16.22 v -87.168 h -16.22 z m 38.5,87.168 h 16.23 c 31.78,0 47.9,-14.664 47.9,-43.582 0,-28.922 -16.12,-43.586 -47.9,-43.586 h -16.23 v 87.168 z m 17.19,20.364 h -56.65 c -43.79,0 -69.94,-23.907 -69.94,-63.946 0,-39.89 26.15,-63.707 69.94,-63.707 h 17.18 v -38.062 -2.5 h 2.5 17.28 2.5 v 2.5 38.062 h 17.19 c 43.79,0 69.94,23.817 69.94,63.707 0,40.039 -26.15,63.946 -69.94,63.946 z m -55.69,-110.032 h 18.72 v 92.168 h -18.72 c -36.72,0 -50.4,-19.199 -50.4,-46.082 0,-26.882 13.68,-46.086 50.4,-46.086 m 36,0 h 18.73 c 36.72,0 50.4,19.204 50.4,46.086 0,26.883 -13.68,46.082 -50.4,46.082 h -18.73 v -92.168 m 19.69,107.532 c 44.64,0 67.44,-24.723 67.44,-61.446 0,-36.004 -22.8,-61.207 -67.44,-61.207 h -19.69 v -40.562 h -17.28 v 40.562 h -19.68 c -44.64,0 -67.44,25.203 -67.44,61.207 0,36.723 22.8,61.446 67.44,61.446 h 19.68 17.28 19.69" /><path
         id="path130"
         style="fill:#0e7967;fill-opacity:1;fill-rule:nonzero;stroke:none"
         d="m 1430.37,223.422 -28.12,70.773 c -1.95,4.805 -3.92,11.239 -5.12,15.399 -1.27,-4.16 -3.33,-10.606 -5.28,-15.41 l -28.12,-70.762 z m 18.28,-44.746 -11.04,27.363 h -80.87 l -10.8,-27.363 h -19.76 l 68.71,167.394 h 4.55 l 70.18,-167.394 h -20.97" /><path
         id="path132"
         style="fill:#0e7967;fill-opacity:1;fill-rule:nonzero;stroke:none"
         d="m 1365.57,224.672 27.44,69.062 c 1.44,3.532 2.91,7.86 4.09,11.559 1.13,-3.703 2.56,-8.035 3.99,-11.574 l 27.44,-69.047 h -62.96 z m 34.7,122.648 h -6.22 l -0.63,-1.55 -67.69,-164.895 -1.41,-3.449 h 3.72 17.05 1.7 l 0.62,1.582 10.18,25.781 h 79.18 l 10.41,-25.797 0.63,-1.566 h 1.68 18.25 3.76 l -1.46,3.469 -69.12,164.89 -0.65,1.535 z m -38.38,-125.148 h 70.32 l -28.8,72.484 c -3.12,7.684 -6.24,19.442 -6.24,19.442 0,0 -3.36,-11.758 -6.48,-19.442 l -28.8,-72.484 m 36.72,122.648 69.13,-164.894 h -18.25 l -11.04,27.363 h -82.56 l -10.8,-27.363 h -17.05 l 67.69,164.894 h 2.88" /><path
         id="path134"
         style="fill:#0e7967;fill-opacity:1;fill-rule:nonzero;stroke:none"
         d="m 1588.33,178.676 -56.3,71.035 -18.7,-22.578 0.29,-48.457 h -19.78 v 165.715 h 19.78 v -78.536 c 0,-5.246 -0.45,-11.261 -0.88,-16.23 2.66,4.922 6.33,11.395 8.95,14.832 l 62.07,79.934 h 22.59 l -61.44,-79.961 67.97,-85.754 h -24.55" /><path
         id="path136"
         style="fill:#0e7967;fill-opacity:1;fill-rule:nonzero;stroke:none"
         d="m 1608.88,345.641 h -25.73 l -0.75,-0.969 -61.69,-79.442 c -1.83,-2.39 -4.14,-6.199 -6.27,-9.953 0.24,3.524 0.43,7.203 0.43,10.578 v 77.286 2.5 h -2.5 -17.28 -2.5 v -2.5 -163.215 -2.5 h 2.5 17.28 2.5 v 2.5 47.101 l 17.14,20.696 54.96,-69.348 0.75,-0.949 h 1.21 21.37 5.17 l -3.22,4.054 -65.75,82.958 59.29,77.179 3.09,4.024 z m -5.07,-2.5 -60.48,-78.727 66.97,-84.488 h -21.37 l -56.88,71.769 -19.68,-23.765 v -48.004 h -17.28 v 163.215 h 17.28 v -77.286 c 0,-7.683 -0.97,-17.042 -1.44,-22.324 3.59,6.961 8.63,16.082 11.75,20.164 l 61.69,79.446 h 19.44" /><path
         id="path138"
         style="fill:#0e7967;fill-opacity:1;fill-rule:nonzero;stroke:none"
         d="m 1646.82,178.676 30.75,52.394 -62.36,113.321 h 22.29 l 44.76,-81.778 c 2.37,-4.113 4.61,-9.863 5.91,-13.457 1.34,3.524 3.61,9.199 5.81,13.438 l 44.53,81.797 h 20.84 l -61.49,-113.215 -30.37,-52.5 h -20.67" /><path
         id="path140"
         style="fill:#0e7967;fill-opacity:1;fill-rule:nonzero;stroke:none"
         d="m 1761.46,345.641 h -23.7 l -0.71,-1.305 -44.16,-81.129 c -1.67,-3.227 -3.38,-7.242 -4.7,-10.551 -1.31,3.375 -3.04,7.453 -4.86,10.606 l -44.38,81.078 -0.71,1.301 h -1.48 -19.44 -4.23 l 2.04,-3.707 61,-110.844 -29.28,-49.899 -2.21,-3.765 h 4.37 17.76 1.44 l 0.72,1.25 30,51.844 60.52,111.425 2.01,3.696 z m -4.21,-2.5 -60.48,-111.368 -30,-51.847 h -17.76 l 30,51.125 -61.69,112.09 h 19.44 l 44.4,-81.129 c 3.61,-6.242 6.97,-16.559 6.97,-16.559 0,0 3.6,10.078 6.96,16.559 l 44.16,81.129 h 18" /><path
         id="path142"
         style="fill:#0e7967;fill-opacity:1;fill-rule:nonzero;stroke:none"
         d="m 1849.51,178.676 -4.47,11.465 c -13.37,34.277 -26.73,68.547 -39.92,102.902 l -1.04,2.637 c -1.37,3.418 -3.07,7.656 -4.09,11.453 -9.09,-29.559 -20.9,-58.867 -32.33,-87.254 -5.42,-13.469 -10.84,-26.914 -15.98,-40.402 l -0.31,-0.801 h -19 l 65.72,165.715 h 4.46 l 67.12,-165.715 h -20.16" /><path
         id="path144"
         style="fill:#0e7967;fill-opacity:1;fill-rule:nonzero;stroke:none"
         d="m 1803.38,345.641 h -6.13 l -0.63,-1.578 -64.73,-163.215 -1.36,-3.422 h 3.68 16.3 1.72 l 0.62,1.609 c 5.13,13.461 10.64,27.133 15.96,40.356 10.95,27.183 22.25,55.226 31.17,83.547 0.93,-2.7 2.01,-5.399 2.94,-7.723 l 1.04,-2.625 c 13.12,-34.18 26.41,-68.281 39.71,-102.387 l 4.36,-11.183 0.62,-1.594 h 1.71 17.45 3.71 l -1.39,3.437 -66.11,163.215 -0.64,1.563 z m -1.68,-2.5 66.11,-163.215 h -17.45 c -14.75,37.832 -29.52,75.648 -44.07,113.562 -1.83,4.782 -5.97,14.11 -5.97,19.242 0,-0.039 -0.16,-0.699 -0.53,-1.941 -13.34,-44.437 -32.73,-87.473 -49.28,-130.863 h -16.3 l 64.73,163.215 h 2.76" /><path
         id="path146"
         style="fill:#0e7967;fill-opacity:1;fill-rule:nonzero;stroke:none"
         d="m 1934.21,196.539 c 32.61,0 49.15,15.086 49.15,44.832 0,29.746 -16.54,44.836 -49.15,44.836 h -17.47 v -89.668 z m -37.25,-17.863 v 165.715 h 19.78 v -40.559 h 18.43 c 43.02,0 68.69,-23.348 68.69,-62.461 0,-39.258 -25.67,-62.695 -68.69,-62.695 h -38.21" /><path
         id="path148"
         style="fill:#0e7967;fill-opacity:1;fill-rule:nonzero;stroke:none"
         d="m 1917.99,284.957 h 16.22 c 31.78,0 47.9,-14.664 47.9,-43.586 0,-28.918 -16.12,-43.582 -47.9,-43.582 h -16.22 v 87.168 z m 0,60.684 h -22.28 V 177.426 h 39.46 c 43.8,0 69.94,23.906 69.94,63.945 0,39.891 -26.14,63.707 -69.94,63.707 h -17.18 v 38.063 2.5 z m -2.5,-150.352 h 18.72 c 36.72,0 50.4,19.199 50.4,46.082 0,26.883 -13.68,46.086 -50.4,46.086 h -18.72 v -92.168 m 0,147.852 v -40.563 h 19.68 c 44.64,0 67.44,-25.203 67.44,-61.207 0,-36.723 -22.8,-61.445 -67.44,-61.445 h -36.96 v 163.215 h 17.28" /><path
         id="path150"
         style="fill:#0e7967;fill-opacity:1;fill-rule:nonzero;stroke:none"
         d="m 2065.73,178.676 v 147.851 h -50.17 v 17.864 h 120.11 v -17.864 h -50.16 V 178.676 h -19.78" /><path
         id="path152"
         style="fill:#0e7967;fill-opacity:1;fill-rule:nonzero;stroke:none"
         d="m 2136.92,345.641 h -122.61 v -20.364 h 50.17 v -145.351 -2.5 h 2.5 17.28 2.5 v 2.5 145.351 h 47.66 2.5 v 2.5 15.364 2.5 z m -2.5,-2.5 v -15.364 h -50.16 V 179.926 h -17.28 v 147.851 h -50.17 v 15.364 h 117.61" /><path
         id="path154"
         style="fill:#0e7967;fill-opacity:1;fill-rule:nonzero;stroke:none"
         d="m 2159.92,178.676 v 165.715 h 101.86 v -17.864 h -82.08 v -74.062 h 73.2 v -17.617 h -73.2 v -38.309 h 85.44 v -17.863 h -105.22" /><path
         id="path156"
         style="fill:#0e7967;fill-opacity:1;fill-rule:nonzero;stroke:none"
         d="M 2263.03,345.641 H 2158.67 V 177.426 h 107.72 v 2.5 15.363 2.5 h -2.5 -82.94 v 35.805 h 70.7 2.5 v 2.5 15.117 2.5 h -2.5 -70.7 v 71.566 h 79.58 2.5 v 2.5 15.364 2.5 z m -2.5,-2.5 v -15.364 h -82.08 v -76.566 h 73.2 v -15.117 h -73.2 v -40.805 h 85.44 v -15.363 h -102.72 v 163.215 h 99.36" /><path
         id="path158"
         style="fill:#0e7967;fill-opacity:1;fill-rule:nonzero;stroke:none"
         d="m 2333.87,178.676 v 147.851 h -50.16 v 17.864 h 120.11 v -17.864 h -50.17 V 178.676 h -19.78" /><path
         id="path160"
         style="fill:#0e7967;fill-opacity:1;fill-rule:nonzero;stroke:none"
         d="m 2405.07,345.641 h -122.61 v -20.364 h 50.16 v -145.351 -2.5 h 2.5 17.28 2.5 v 2.5 145.351 h 47.67 2.5 v 2.5 15.364 2.5 z m -2.5,-2.5 V 327.777 H 2352.4 V 179.926 h -17.28 v 147.851 h -50.16 v 15.364 h 117.61" /></g></g></svg>