<svg width="308" height="308" viewBox="0 0 308 308" fill="none" xmlns="http://www.w3.org/2000/svg">
<g filter="url(#filter0_d_1_5)">
<rect x="4" width="300" height="300" rx="30" fill="url(#paint0_radial_1_5)"/>
</g>
<path d="M126.5 125C129.261 125 131.5 127.239 131.5 130V196C131.5 198.761 133.739 201 136.5 201H193.5C196.261 201 198.5 203.239 198.5 206V231C198.5 233.761 196.261 236 193.5 236H96.5C93.7386 236 91.5 233.761 91.5 231V130C91.5 127.239 93.7386 125 96.5 125H126.5Z" fill="white"/>
<path d="M127 56C129.761 56 132 58.2386 132 61V87C132 89.7614 129.761 92 127 92H97C94.2386 92 92 89.7614 92 87V61C92 58.2386 94.2386 56 97 56H127Z" fill="white"/>
<defs>
<filter id="filter0_d_1_5" x="0" y="0" width="308" height="308" filterUnits="userSpaceOnUse" color-interpolation-filters="sRGB">
<feFlood flood-opacity="0" result="BackgroundImageFix"/>
<feColorMatrix in="SourceAlpha" type="matrix" values="0 0 0 0 0 0 0 0 0 0 0 0 0 0 0 0 0 0 127 0" result="hardAlpha"/>
<feOffset dy="4"/>
<feGaussianBlur stdDeviation="2"/>
<feComposite in2="hardAlpha" operator="out"/>
<feColorMatrix type="matrix" values="0 0 0 0 0 0 0 0 0 0 0 0 0 0 0 0 0 0 0.25 0"/>
<feBlend mode="normal" in2="BackgroundImageFix" result="effect1_dropShadow_1_5"/>
<feBlend mode="normal" in="SourceGraphic" in2="effect1_dropShadow_1_5" result="shape"/>
</filter>
<radialGradient id="paint0_radial_1_5" cx="0" cy="0" r="1" gradientUnits="userSpaceOnUse" gradientTransform="translate(178 346) rotate(-89.7376) scale(327.503 1502.12)">
<stop stop-color="#004391"/>
<stop offset="1" stop-color="#0077FF"/>
</radialGradient>
</defs>
</svg>
